<?xml version="1.0" encoding="UTF-8"?>
<svg version="1.1" xmlns="http://www.w3.org/2000/svg" width="250" height="70">
<path d="M0 0 C2.03927834 0.00986498 4.07857491 0.01645154 6.11787415 0.01992798 C10.36360761 0.03511625 14.60797012 0.0759715 18.85327148 0.13818359 C24.30201781 0.21788586 29.74988192 0.25349943 35.19914532 0.27280235 C40.40371647 0.2926931 45.60807202 0.33244803 50.8125 0.375 C51.80617773 0.3817915 52.79985546 0.38858299 53.82364464 0.39558029 C56.61926697 0.41864308 59.41432119 0.45565535 62.2097168 0.49755859 C63.45869751 0.50562531 63.45869751 0.50562531 64.73291016 0.51385498 C70.44592299 0.62170424 70.44592299 0.62170424 72.67578125 2.8515625 C72.87109375 5.890625 72.87109375 5.890625 72.80078125 9.4765625 C72.78273438 10.66507813 72.7646875 11.85359375 72.74609375 13.078125 C72.72289063 13.99335938 72.6996875 14.90859375 72.67578125 15.8515625 C71.05114283 15.90551728 69.42599584 15.94433445 67.80078125 15.9765625 C66.44339844 16.01136719 66.44339844 16.01136719 65.05859375 16.046875 C62.67578125 15.8515625 62.67578125 15.8515625 60.67578125 13.8515625 C60.67578125 12.8615625 60.67578125 11.8715625 60.67578125 10.8515625 C57.04578125 10.8515625 53.41578125 10.8515625 49.67578125 10.8515625 C49.67578125 14.1515625 49.67578125 17.4515625 49.67578125 20.8515625 C51.16851562 20.82835938 52.66125 20.80515625 54.19921875 20.78125 C56.1497346 20.76249504 58.10025583 20.74429455 60.05078125 20.7265625 C61.035625 20.70980469 62.02046875 20.69304688 63.03515625 20.67578125 C63.97617188 20.66933594 64.9171875 20.66289062 65.88671875 20.65625 C67.19068604 20.64053955 67.19068604 20.64053955 68.52099609 20.62451172 C70.67578125 20.8515625 70.67578125 20.8515625 72.67578125 22.8515625 C72.93457031 25.25 72.93457031 25.25 72.94140625 28.2265625 C72.94527344 29.82757812 72.94527344 29.82757812 72.94921875 31.4609375 C72.94148438 32.57984375 72.93375 33.69875 72.92578125 34.8515625 C72.93738281 36.52992187 72.93738281 36.52992187 72.94921875 38.2421875 C72.94664063 39.30953125 72.9440625 40.376875 72.94140625 41.4765625 C72.93915039 42.45882812 72.93689453 43.44109375 72.93457031 44.453125 C72.67578125 46.8515625 72.67578125 46.8515625 70.67578125 48.8515625 C67.96762085 49.09207153 67.96762085 49.09207153 64.48193359 49.07861328 C62.53013687 49.07838669 62.53013687 49.07838669 60.53890991 49.07815552 C59.11317798 49.06794143 57.6874476 49.05750942 56.26171875 49.046875 C54.80726312 49.04314545 53.35280498 49.0402982 51.89834595 49.03829956 C48.06780069 49.0306585 44.23740679 49.01100607 40.40692139 48.9888916 C36.49916634 48.96844328 32.59138686 48.95930002 28.68359375 48.94921875 C21.01424589 48.9277605 13.34505404 48.89257465 5.67578125 48.8515625 C2.37578125 42.5815625 -0.92421875 36.3115625 -4.32421875 29.8515625 C-4.65421875 36.1215625 -4.98421875 42.3915625 -5.32421875 48.8515625 C-15.28515625 49.14453125 -15.28515625 49.14453125 -18.32421875 48.8515625 C-20.46008553 45.64776233 -20.5555405 44.83216283 -20.44921875 41.1640625 C-20.43117188 40.35582031 -20.413125 39.54757813 -20.39453125 38.71484375 C-20.37132812 38.09996094 -20.348125 37.48507813 -20.32421875 36.8515625 C-20.96359375 36.6246875 -21.60296875 36.3978125 -22.26171875 36.1640625 C-24.97218997 35.00243198 -27.44791543 33.71052148 -30.015625 32.26953125 C-30.82330322 31.81731201 -31.63098145 31.36509277 -32.46313477 30.89916992 C-33.07729248 30.55345947 -33.6914502 30.20774902 -34.32421875 29.8515625 C-34.70571877 26.52145109 -34.93349663 23.19691122 -35.13671875 19.8515625 C-35.24564453 18.91699219 -35.35457031 17.98242188 -35.46679688 17.01953125 C-35.60942113 13.88179768 -35.3620667 11.82479049 -34.32421875 8.8515625 C-24.67920272 -0.91049793 -12.79584383 -0.2384924 0 0 Z M2.67578125 14.8515625 C3.33578125 16.8315625 3.99578125 18.8115625 4.67578125 20.8515625 C5.00578125 20.8515625 5.33578125 20.8515625 5.67578125 20.8515625 C5.67578125 18.8715625 5.67578125 16.8915625 5.67578125 14.8515625 C4.68578125 14.8515625 3.69578125 14.8515625 2.67578125 14.8515625 Z M35.67578125 28.8515625 C35.67578125 30.5015625 35.67578125 32.1515625 35.67578125 33.8515625 C39.30578125 34.1815625 42.93578125 34.5115625 46.67578125 34.8515625 C46.67578125 36.1715625 46.67578125 37.4915625 46.67578125 38.8515625 C50.30578125 38.8515625 53.93578125 38.8515625 57.67578125 38.8515625 C57.67578125 35.8815625 57.67578125 32.9115625 57.67578125 29.8515625 C50.41578125 29.5215625 43.15578125 29.1915625 35.67578125 28.8515625 Z " fill="#2F2A29" transform="translate(34.32421875,1.1484375)"/>
<path d="M0 0 C4.45827926 -0.0578304 8.9164628 -0.09353855 13.375 -0.125 C15.28152344 -0.15013672 15.28152344 -0.15013672 17.2265625 -0.17578125 C18.43828125 -0.18222656 19.65 -0.18867188 20.8984375 -0.1953125 C22.01911621 -0.20578613 23.13979492 -0.21625977 24.29443359 -0.22705078 C27 0 27 0 29 2 C29.1953125 5.0390625 29.1953125 5.0390625 29.125 8.625 C29.10695312 9.81351563 29.08890625 11.00203125 29.0703125 12.2265625 C29.04710937 13.14179688 29.02390625 14.05703125 29 15 C27.37536158 15.05395478 25.75021459 15.09277195 24.125 15.125 C22.76761719 15.15980469 22.76761719 15.15980469 21.3828125 15.1953125 C19 15 19 15 17 13 C17 12.01 17 11.02 17 10 C13.37 10 9.74 10 6 10 C6 13.3 6 16.6 6 20 C7.49273437 19.97679688 8.98546875 19.95359375 10.5234375 19.9296875 C12.47395335 19.91093254 14.42447458 19.89273205 16.375 19.875 C17.35984375 19.85824219 18.3446875 19.84148438 19.359375 19.82421875 C20.77089844 19.81455078 20.77089844 19.81455078 22.2109375 19.8046875 C23.51490479 19.78897705 23.51490479 19.78897705 24.84521484 19.77294922 C27 20 27 20 29 22 C29.25878906 24.3984375 29.25878906 24.3984375 29.265625 27.375 C29.26949219 28.97601562 29.26949219 28.97601562 29.2734375 30.609375 C29.26570313 31.72828125 29.25796875 32.8471875 29.25 34 C29.26160156 35.67835937 29.26160156 35.67835937 29.2734375 37.390625 C29.27085938 38.45796875 29.26828125 39.5253125 29.265625 40.625 C29.26336914 41.60726562 29.26111328 42.58953125 29.25878906 43.6015625 C29 46 29 46 27 48 C24.43072969 48.18729753 21.97126023 48.25574642 19.40234375 48.23046875 C18.27814781 48.22978142 18.27814781 48.22978142 17.13124084 48.2290802 C15.54670631 48.22605811 13.96217474 48.21817306 12.37768555 48.20581055 C9.94374142 48.18754683 7.51017738 48.18530089 5.07617188 48.18554688 C3.53905919 48.18063201 2.0019491 48.17480382 0.46484375 48.16796875 C-0.26742935 48.16685593 -0.99970245 48.1657431 -1.75416565 48.16459656 C-6.88394762 48.11605238 -6.88394762 48.11605238 -8 47 C-8.07271741 44.64686445 -8.08370868 42.29166332 -8.0625 39.9375 C-8.05347656 38.64714844 -8.04445313 37.35679688 -8.03515625 36.02734375 C-8.02355469 35.02832031 -8.01195313 34.02929688 -8 33 C-6.54176788 32.9729957 -5.08339325 32.95360213 -3.625 32.9375 C-2.40683594 32.92009766 -2.40683594 32.92009766 -1.1640625 32.90234375 C1 33 1 33 3 34 C3 35.32 3 36.64 3 38 C6.63 38 10.26 38 14 38 C14 35.03 14 32.06 14 29 C12.57945313 29.01160156 11.15890625 29.02320312 9.6953125 29.03515625 C7.83854298 29.04453387 5.98177204 29.0536341 4.125 29.0625 C3.18785156 29.07087891 2.25070313 29.07925781 1.28515625 29.08789062 C-0.05869141 29.09272461 -0.05869141 29.09272461 -1.4296875 29.09765625 C-2.67081299 29.10551147 -2.67081299 29.10551147 -3.93701172 29.11352539 C-6 29 -6 29 -8 28 C-8 23.38 -8 18.76 -8 14 C-4.37 14 -0.74 14 3 14 C3 9.71 3 5.42 3 1 C2.01 0.67 1.02 0.34 0 0 Z " fill="#2A2929" transform="translate(78,2)"/>
<path d="M0 0 C6.78099776 -0.02532087 13.56198337 -0.04285457 20.34301758 -0.05493164 C22.6506394 -0.05996551 24.95825803 -0.06679305 27.26586914 -0.07543945 C30.57959786 -0.08754635 33.89328448 -0.09323773 37.20703125 -0.09765625 C38.2414888 -0.10281754 39.27594635 -0.10797882 40.3417511 -0.11329651 C41.3025206 -0.11337204 42.2632901 -0.11344757 43.25317383 -0.11352539 C44.09922684 -0.115746 44.94527985 -0.11796661 45.81697083 -0.12025452 C48 0 48 0 51 1 C51 4.96 51 8.92 51 13 C47.04 13 43.08 13 39 13 C39 24.22 39 35.44 39 47 C34.38 47 29.76 47 25 47 C25 35.78 25 24.56 25 13 C18.4 13 11.8 13 5 13 C0 2.25 0 2.25 0 0 Z " fill="#F05838" transform="translate(30,2)"/>
<path d="M0 0 C1.29550781 -0.03867187 1.29550781 -0.03867187 2.6171875 -0.078125 C5.83924879 0.34345311 7.02775955 0.72465313 9.125 3.25 C9.67065108 6.28182733 9.5912331 9.24178595 9.5 12.3125 C9.49871094 13.14072266 9.49742187 13.96894531 9.49609375 14.82226562 C9.40606936 20.96893064 9.40606936 20.96893064 7.125 23.25 C3.9375 23.55078125 3.9375 23.55078125 0.125 23.5625 C-1.133125 23.57925781 -2.39125 23.59601562 -3.6875 23.61328125 C-4.739375 23.49339844 -5.79125 23.37351562 -6.875 23.25 C-9.36618953 19.5132157 -9.0815226 17.50548181 -9 13.0625 C-8.98195312 11.79019531 -8.96390625 10.51789062 -8.9453125 9.20703125 C-8.92210937 8.23121094 -8.89890625 7.25539063 -8.875 6.25 C-10.525 6.25 -12.175 6.25 -13.875 6.25 C-13.875 11.86 -13.875 17.47 -13.875 23.25 C-15.855 23.25 -17.835 23.25 -19.875 23.25 C-19.875 17.64 -19.875 12.03 -19.875 6.25 C-21.525 6.25 -23.175 6.25 -24.875 6.25 C-24.86339844 7.39339844 -24.85179687 8.53679688 -24.83984375 9.71484375 C-24.83046712 11.20572754 -24.82136679 12.69661309 -24.8125 14.1875 C-24.80412109 14.94224609 -24.79574219 15.69699219 -24.78710938 16.47460938 C-24.77847559 18.39994313 -24.82275667 20.32535581 -24.875 22.25 C-25.875 23.25 -25.875 23.25 -28.09985352 23.36352539 C-29.05819092 23.35828857 -30.01652832 23.35305176 -31.00390625 23.34765625 C-32.55561523 23.34282227 -32.55561523 23.34282227 -34.13867188 23.33789062 C-35.22728516 23.32951172 -36.31589844 23.32113281 -37.4375 23.3125 C-39.0762207 23.30573242 -39.0762207 23.30573242 -40.74804688 23.29882812 C-43.45708495 23.28699826 -46.16601599 23.27051543 -48.875 23.25 C-50.07529908 20.84940183 -49.98959743 19.35639351 -49.97265625 16.6796875 C-49.96943359 15.78378906 -49.96621094 14.88789063 -49.96289062 13.96484375 C-49.95451172 13.02769531 -49.94613281 12.09054687 -49.9375 11.125 C-49.93298828 10.18011719 -49.92847656 9.23523437 -49.92382812 8.26171875 C-49.91202357 5.92441613 -49.89555759 3.58723939 -49.875 1.25 C-47.895 1.25 -45.915 1.25 -43.875 1.25 C-43.875 6.86 -43.875 12.47 -43.875 18.25 C-42.885 18.25 -41.895 18.25 -40.875 18.25 C-40.88660156 17.10660156 -40.89820313 15.96320312 -40.91015625 14.78515625 C-40.91953288 13.29427246 -40.92863321 11.80338691 -40.9375 10.3125 C-40.94587891 9.55775391 -40.95425781 8.80300781 -40.96289062 8.02539062 C-40.97152441 6.10005687 -40.92724333 4.17464419 -40.875 2.25 C-39.875 1.25 -39.875 1.25 -37.375 1.125 C-34.875 1.25 -34.875 1.25 -33.875 2.25 C-33.80180379 4.94654854 -33.78257463 7.61691458 -33.8125 10.3125 C-33.81701172 11.07111328 -33.82152344 11.82972656 -33.82617188 12.61132812 C-33.8379932 14.49091871 -33.85592922 16.37046899 -33.875 18.25 C-32.885 18.25 -31.895 18.25 -30.875 18.25 C-30.875 12.64 -30.875 7.03 -30.875 1.25 C-22.875 1.25 -14.875 1.25 -6.875 1.25 C-4.43545342 0.03022671 -2.72194151 0.04846187 0 0 Z M-1.875 6.25 C-1.875 10.21 -1.875 14.17 -1.875 18.25 C-0.225 18.25 1.425 18.25 3.125 18.25 C3.125 14.29 3.125 10.33 3.125 6.25 C1.475 6.25 -0.175 6.25 -1.875 6.25 Z " fill="#E15032" transform="translate(194.875,1.75)"/>
<path d="M0 0 C0 5.94 0 11.88 0 18 C1.98 17.34 3.96 16.68 6 16 C6 23.26 6 30.52 6 38 C1.05 36.02 1.05 36.02 -4 34 C-5.56621094 33.52240234 -5.56621094 33.52240234 -7.1640625 33.03515625 C-10.40145025 31.75561728 -11.89046547 30.81844124 -14 28 C-15.83914197 21.28853744 -15.95038819 13.69396004 -14 7 C-10.29787572 2.44820786 -5.91700034 0 0 0 Z " fill="#E85234" transform="translate(14,3)"/>
<path d="M0 0 C0.91644287 0.00523682 1.83288574 0.01047363 2.77709961 0.01586914 C3.76645508 0.0190918 4.75581055 0.02231445 5.77514648 0.02563477 C6.81606445 0.03401367 7.85698242 0.04239258 8.92944336 0.05102539 C10.49662109 0.05779297 10.49662109 0.05779297 12.09545898 0.06469727 C14.68600996 0.07652627 17.27644895 0.0930085 19.86694336 0.11352539 C19.92100458 2.05071917 19.95976361 3.98834461 19.99194336 5.92602539 C20.01514648 7.0049707 20.03834961 8.08391602 20.06225586 9.19555664 C19.86694336 12.11352539 19.86694336 12.11352539 17.86694336 15.11352539 C18.36194336 15.87665039 18.85694336 16.63977539 19.36694336 17.42602539 C20.86694336 20.11352539 20.86694336 20.11352539 20.86694336 23.11352539 C18.22694336 23.11352539 15.58694336 23.11352539 12.86694336 23.11352539 C9.86694336 17.36352539 9.86694336 17.36352539 9.86694336 15.11352539 C8.54694336 15.11352539 7.22694336 15.11352539 5.86694336 15.11352539 C5.86694336 17.75352539 5.86694336 20.39352539 5.86694336 23.11352539 C-0.28540039 23.21118164 -0.28540039 23.21118164 -2.13305664 23.11352539 C-3.75506179 21.49152024 -3.26296414 19.69329509 -3.26586914 17.45727539 C-3.2671582 16.51754883 -3.26844727 15.57782227 -3.26977539 14.60961914 C-3.2659082 13.6209082 -3.26204102 12.63219727 -3.25805664 11.61352539 C-3.26192383 10.62481445 -3.26579102 9.63610352 -3.26977539 8.61743164 C-3.26848633 7.67770508 -3.26719727 6.73797852 -3.26586914 5.76977539 C-3.26474121 4.9015918 -3.26361328 4.0334082 -3.26245117 3.13891602 C-3.08267837 0.32496289 -2.81735491 0.14994507 0 0 Z M5.86694336 6.11352539 C5.86694336 7.43352539 5.86694336 8.75352539 5.86694336 10.11352539 C7.84694336 10.11352539 9.82694336 10.11352539 11.86694336 10.11352539 C11.86694336 8.79352539 11.86694336 7.47352539 11.86694336 6.11352539 C9.88694336 6.11352539 7.90694336 6.11352539 5.86694336 6.11352539 Z " fill="#D94F32" transform="translate(185.133056640625,26.886474609375)"/>
<path d="M0 0 C1.98 0 3.96 0 6 0 C6 5.61 6 11.22 6 17 C6.99 17 7.98 17 9 17 C8.98839844 15.85660156 8.97679687 14.71320312 8.96484375 13.53515625 C8.95546712 12.04427246 8.94636679 10.55338691 8.9375 9.0625 C8.92912109 8.30775391 8.92074219 7.55300781 8.91210938 6.77539062 C8.90347559 4.85005687 8.94775667 2.92464419 9 1 C9.33 0.67 9.66 0.34 10 0 C11.65 0 13.3 0 15 0 C15 5.61 15 11.22 15 17 C15.99 17 16.98 17 18 17 C17.98839844 15.85660156 17.97679687 14.71320312 17.96484375 13.53515625 C17.95546712 12.04427246 17.94636679 10.55338691 17.9375 9.0625 C17.92912109 8.30775391 17.92074219 7.55300781 17.91210938 6.77539062 C17.90347559 4.85005687 17.94775667 2.92464419 18 1 C19 0 19 0 22.0625 -0.0625 C23.5165625 -0.0315625 23.5165625 -0.0315625 25 0 C25.02895225 3.29164829 25.0467823 6.58326399 25.0625 9.875 C25.07087891 10.81214844 25.07925781 11.74929688 25.08789062 12.71484375 C25.09272461 14.05869141 25.09272461 14.05869141 25.09765625 15.4296875 C25.10551147 16.67081299 25.10551147 16.67081299 25.11352539 17.93701172 C25 20 25 20 24 22 C20.18751574 22.02887236 16.3750593 22.04675492 12.5625 22.0625 C11.47388672 22.07087891 10.38527344 22.07925781 9.26367188 22.08789062 C8.22919922 22.09111328 7.19472656 22.09433594 6.12890625 22.09765625 C5.17056885 22.10289307 4.21223145 22.10812988 3.22485352 22.11352539 C1 22 1 22 0 21 C-0.08685603 19.43827255 -0.10702219 17.87270656 -0.09765625 16.30859375 C-0.09443359 15.36435547 -0.09121094 14.42011719 -0.08789062 13.44726562 C-0.07951172 12.45404297 -0.07113281 11.46082031 -0.0625 10.4375 C-0.05798828 9.44041016 -0.05347656 8.44332031 -0.04882812 7.41601562 C-0.03700007 4.94395151 -0.02051849 2.47200482 0 0 Z " fill="#E15234" transform="translate(206,3)"/>
<path d="M0 0 C6.93 0 13.86 0 21 0 C21.33 1.65 21.66 3.3 22 5 C21 6 21 6 18.05859375 6.09765625 C16.26615234 6.08025391 16.26615234 6.08025391 14.4375 6.0625 C12.64119141 6.04896484 12.64119141 6.04896484 10.80859375 6.03515625 C9.88175781 6.02355469 8.95492187 6.01195312 8 6 C8 6.99 8 7.98 8 9 C9.39025391 8.98259766 9.39025391 8.98259766 10.80859375 8.96484375 C12.00613281 8.95582031 13.20367187 8.94679688 14.4375 8.9375 C15.63246094 8.92589844 16.82742187 8.91429687 18.05859375 8.90234375 C21 9 21 9 22 10 C22.09873816 11.99799572 22.12971799 13.99957158 22.125 16 C22.12886719 17.6396875 22.12886719 17.6396875 22.1328125 19.3125 C22 22 22 22 21 23 C19.43827255 23.08685603 17.87270656 23.10702219 16.30859375 23.09765625 C15.36435547 23.09443359 14.42011719 23.09121094 13.44726562 23.08789062 C11.95743164 23.07532227 11.95743164 23.07532227 10.4375 23.0625 C9.44041016 23.05798828 8.44332031 23.05347656 7.41601562 23.04882812 C4.94395151 23.03700007 2.47200482 23.02051849 0 23 C0 21.35 0 19.7 0 18 C4.29 18 8.58 18 13 18 C13 16.68 13 15.36 13 14 C8.71 14 4.42 14 0 14 C0 9.38 0 4.76 0 0 Z " fill="#DA5033" transform="translate(110,27)"/>
<path d="M0 0 C1.49080078 0.02707031 1.49080078 0.02707031 3.01171875 0.0546875 C3.77097656 0.07789062 4.53023437 0.10109375 5.3125 0.125 C11.3125 15.26785714 11.3125 15.26785714 11.3125 23.125 C8.6725 23.125 6.0325 23.125 3.3125 23.125 C2.8175 20.65 2.8175 20.65 2.3125 18.125 C-1.73835679 18.37131557 -1.73835679 18.37131557 -5.6875 19.125 C-7.2774433 21.04564793 -7.2774433 21.04564793 -7.6875 23.125 C-10.3275 23.125 -12.9675 23.125 -15.6875 23.125 C-14.60049408 19.66103284 -13.49003465 16.20503693 -12.375 12.75 C-11.9119043 11.27273437 -11.9119043 11.27273437 -11.43945312 9.765625 C-11.13330078 8.82460938 -10.82714844 7.88359375 -10.51171875 6.9140625 C-10.23416748 6.04475098 -9.95661621 5.17543945 -9.6706543 4.27978516 C-7.6072756 -0.24253428 -4.43313411 -0.10430904 0 0 Z M-2.6875 6.125 C-3.3475 8.435 -4.0075 10.745 -4.6875 13.125 C-3.0375 13.125 -1.3875 13.125 0.3125 13.125 C-0.0175 10.815 -0.3475 8.505 -0.6875 6.125 C-1.3475 6.125 -2.0075 6.125 -2.6875 6.125 Z " fill="#DD5033" transform="translate(168.6875,26.875)"/>
<path d="M0 0 C3.609375 -0.020625 7.21875 -0.04125 10.9375 -0.0625 C12.07695068 -0.071604 13.21640137 -0.08070801 14.39038086 -0.09008789 C15.28120361 -0.09258545 16.17202637 -0.09508301 17.08984375 -0.09765625 C18.46450806 -0.10551147 18.46450806 -0.10551147 19.86694336 -0.11352539 C22 0 22 0 23 1 C23.15135944 2.7872057 23.22175778 4.58161876 23.25 6.375 C23.27578125 7.35210937 23.3015625 8.32921875 23.328125 9.3359375 C23 12 23 12 21.671875 13.7890625 C18.79075604 15.87585427 16.24912392 16.1188381 12.8125 16.0625 C10.9253125 16.0315625 10.9253125 16.0315625 9 16 C9 18.31 9 20.62 9 23 C6.03 23 3.06 23 0 23 C0 15.41 0 7.82 0 0 Z M9 6 C9 7.32 9 8.64 9 10 C10.98 10 12.96 10 15 10 C15 8.68 15 7.36 15 6 C13.02 6 11.04 6 9 6 Z " fill="#D74E31" transform="translate(133,27)"/>
<path d="M0 0 C0.83265381 0.00523682 1.66530762 0.01047363 2.52319336 0.01586914 C3.42231445 0.0190918 4.32143555 0.02231445 5.24780273 0.02563477 C6.66609375 0.03820312 6.66609375 0.03820312 8.11303711 0.05102539 C9.06243164 0.05553711 10.01182617 0.06004883 10.98999023 0.06469727 C13.34356776 0.07652429 15.69702188 0.09300514 18.05053711 0.11352539 C18.05053711 2.09352539 18.05053711 4.07352539 18.05053711 6.11352539 C13.76053711 6.11352539 9.47053711 6.11352539 5.05053711 6.11352539 C5.05053711 7.10352539 5.05053711 8.09352539 5.05053711 9.11352539 C9.34053711 9.11352539 13.63053711 9.11352539 18.05053711 9.11352539 C18.05053711 13.73352539 18.05053711 18.35352539 18.05053711 23.11352539 C11.12053711 23.11352539 4.19053711 23.11352539 -2.94946289 23.11352539 C-2.94946289 21.46352539 -2.94946289 19.81352539 -2.94946289 18.11352539 C1.34053711 18.11352539 5.63053711 18.11352539 10.05053711 18.11352539 C10.05053711 16.79352539 10.05053711 15.47352539 10.05053711 14.11352539 C5.76053711 14.11352539 1.47053711 14.11352539 -2.94946289 14.11352539 C-3.04711914 4.05493164 -3.04711914 4.05493164 -2.94946289 1.11352539 C-1.94946289 0.11352539 -1.94946289 0.11352539 0 0 Z " fill="#DF5134" transform="translate(231.949462890625,26.886474609375)"/>
<path d="M0 0 C0.74886475 0.00523682 1.49772949 0.01047363 2.26928711 0.01586914 C3.07817383 0.0190918 3.88706055 0.02231445 4.72045898 0.02563477 C5.5705957 0.03401367 6.42073242 0.04239258 7.29663086 0.05102539 C8.15063477 0.05553711 9.00463867 0.06004883 9.88452148 0.06469727 C12.00108749 0.07652166 14.11761771 0.0944577 16.23413086 0.11352539 C16.23413086 2.09352539 16.23413086 4.07352539 16.23413086 6.11352539 C12.60413086 6.11352539 8.97413086 6.11352539 5.23413086 6.11352539 C5.23413086 7.10352539 5.23413086 8.09352539 5.23413086 9.11352539 C8.53413086 9.11352539 11.83413086 9.11352539 15.23413086 9.11352539 C15.23413086 10.76352539 15.23413086 12.41352539 15.23413086 14.11352539 C11.93413086 14.11352539 8.63413086 14.11352539 5.23413086 14.11352539 C5.23413086 15.43352539 5.23413086 16.75352539 5.23413086 18.11352539 C8.86413086 18.11352539 12.49413086 18.11352539 16.23413086 18.11352539 C16.23413086 19.76352539 16.23413086 21.41352539 16.23413086 23.11352539 C9.96413086 23.11352539 3.69413086 23.11352539 -2.76586914 23.11352539 C-2.79269901 19.4676437 -2.81262483 15.82195693 -2.82836914 12.17602539 C-2.83674805 11.13510742 -2.84512695 10.09418945 -2.85375977 9.02172852 C-2.85859375 7.53769531 -2.85859375 7.53769531 -2.86352539 6.02368164 C-2.86876221 5.10723877 -2.87399902 4.1907959 -2.87939453 3.24658203 C-2.73921126 0.61264388 -2.64344608 0.16994365 0 0 Z " fill="#E05234" transform="translate(210.765869140625,26.886474609375)"/>
<path d="M0 0 C1.65 0 3.3 0 5 0 C6.80078125 1.96875 6.80078125 1.96875 8.3125 4.5 C8.82425781 5.3353125 9.33601563 6.170625 9.86328125 7.03125 C10.23839844 7.6809375 10.61351563 8.330625 11 9 C11.33 6.03 11.66 3.06 12 0 C13.66611905 -0.042721 15.33382885 -0.04063832 17 0 C18.58937556 1.58937556 18.12981143 3.23899846 18.1328125 5.4375 C18.13474609 6.77941406 18.13474609 6.77941406 18.13671875 8.1484375 C18.13285156 9.08945313 18.12898438 10.03046875 18.125 11 C18.13080078 12.41152344 18.13080078 12.41152344 18.13671875 13.8515625 C18.13542969 14.74617188 18.13414062 15.64078125 18.1328125 16.5625 C18.13168457 17.38878906 18.13055664 18.21507813 18.12939453 19.06640625 C18 21 18 21 17 22 C14.64453125 22.34375 14.64453125 22.34375 12 22 C10.19921875 20.03125 10.19921875 20.03125 8.6875 17.5 C8.17574219 16.6646875 7.66398437 15.829375 7.13671875 14.96875 C6.76160156 14.3190625 6.38648437 13.669375 6 13 C5.67 15.97 5.34 18.94 5 22 C3.35 22 1.7 22 0 22 C0 14.74 0 7.48 0 0 Z " fill="#DF5133" transform="translate(110,3)"/>
<path d="M0 0 C5 0 5 0 6.80078125 1.75 C7.29964844 2.4925 7.79851562 3.235 8.3125 4 C8.82425781 4.7425 9.33601562 5.485 9.86328125 6.25 C10.23839844 6.8275 10.61351562 7.405 11 8 C11.33 5.36 11.66 2.72 12 0 C13.65 0 15.3 0 17 0 C17 7.26 17 14.52 17 22 C12 21 12 21 10.19921875 18.93359375 C9.70035156 18.10988281 9.20148438 17.28617188 8.6875 16.4375 C8.17574219 15.61121094 7.66398438 14.78492188 7.13671875 13.93359375 C6.76160156 13.29550781 6.38648438 12.65742188 6 12 C5.67 15.3 5.34 18.6 5 22 C3.35 22 1.7 22 0 22 C0 14.74 0 7.48 0 0 Z " fill="#E85334" transform="translate(233,3)"/>
<path d="M0 0 C4.62 0 9.24 0 14 0 C13.67 1.65 13.34 3.3 13 5 C10.69 5 8.38 5 6 5 C6 5.99 6 6.98 6 8 C8.31 8 10.62 8 13 8 C13 9.65 13 11.3 13 13 C10.69 13 8.38 13 6 13 C6 14.32 6 15.64 6 17 C8.64 17 11.28 17 14 17 C14 18.65 14 20.3 14 22 C9.38 22 4.76 22 0 22 C0 14.74 0 7.48 0 0 Z " fill="#EC5536" transform="translate(130,3)"/>
<path d="M0 0 C4.95 0 9.9 0 15 0 C15 1.32 15 2.64 15 4 C13.35 4 11.7 4 10 4 C10 9.94 10 15.88 10 22 C8.02 22 6.04 22 4 22 C4 16.39 4 10.78 4 5 C2.68 5 1.36 5 0 5 C0 3.35 0 1.7 0 0 Z " fill="#F15737" transform="translate(171,3)"/>
<path d="M0 0 C0 0.99 0 1.98 0 3 C-1.32 3 -2.64 3 -4 3 C-4 4.32 -4 5.64 -4 7 C-3.67 6.01 -3.34 5.02 -3 4 C-1.67696283 3.6278958 -0.34262065 3.29369827 1 3 C1.33 2.34 1.66 1.68 2 1 C4.64 1 7.28 1 10 1 C10 1.66 10 2.32 10 3 C10.66 3 11.32 3 12 3 C12 2.34 12 1.68 12 1 C14.97 1 17.94 1 21 1 C20.814375 1.763125 20.62875 2.52625 20.4375 3.3125 C19.77180827 6.08967375 19.77180827 6.08967375 21 9 C18.36 9 15.72 9 13 9 C12.67 8.34 12.34 7.68 12 7 C11.34 7 10.68 7 10 7 C9.67 7.66 9.34 8.32 9 9 C7.68 9 6.36 9 5 9 C5 8.34 5 7.68 5 7 C4.01 7.66 3.02 8.32 2 9 C-1.625 9.1875 -1.625 9.1875 -5 9 C-6 8 -6 8 -6.0625 4.4375 C-6.041875 3.303125 -6.02125 2.16875 -6 1 C-4 0 -4 0 0 0 Z " fill="#1D1D1D" transform="translate(167,55)"/>
<path d="M0 0 C0 5.61 0 11.22 0 17 C-0.99 16.67 -1.98 16.34 -3 16 C-3 15.34 -3 14.68 -3 14 C-3.78375 13.855625 -4.5675 13.71125 -5.375 13.5625 C-8 13 -8 13 -10 12 C-10 11.34 -10 10.68 -10 10 C-11.32 10 -12.64 10 -14 10 C-13.8046875 8.203125 -13.8046875 8.203125 -13 6 C-10.8203125 4.296875 -10.8203125 4.296875 -8.125 2.75 C-7.24070312 2.22921875 -6.35640625 1.7084375 -5.4453125 1.171875 C-3 0 -3 0 0 0 Z " fill="#E15033" transform="translate(14,3)"/>
<path d="M0 0 C2.64 0 5.28 0 8 0 C8 1.98 8 3.96 8 6 C8.66 6 9.32 6 10 6 C10 4.02 10 2.04 10 0 C12.64 0 15.28 0 18 0 C18 0.99 18 1.98 18 3 C18.66 3 19.32 3 20 3 C20 2.01 20 1.02 20 0 C20.66 0 21.32 0 22 0 C21.67 2.64 21.34 5.28 21 8 C19.68 8 18.36 8 17 8 C16.67 6.02 16.34 4.04 16 2 C16 3.32 16 4.64 16 6 C16 6.66 16 7.32 16 8 C10.72 8 5.44 8 0 8 C0 5.36 0 2.72 0 0 Z " fill="#171717" transform="translate(63,56)"/>
<path d="M0 0 C3.76698413 0.94174603 5.99569791 2.04997107 9.25 4.0625 C10.14203125 4.61035156 11.0340625 5.15820312 11.953125 5.72265625 C12.96632813 6.35494141 12.96632813 6.35494141 14 7 C4.57142857 15 4.57142857 15 0 15 C0 10.05 0 5.1 0 0 Z " fill="#F45839" transform="translate(0,13)"/>
<path d="M0 0 C1.48831242 0.00667405 2.97660807 0.01863442 4.46484375 0.03515625 C5.22345703 0.03966797 5.98207031 0.04417969 6.76367188 0.04882812 C8.64326246 0.06064945 10.52281274 0.07858547 12.40234375 0.09765625 C12.21671875 0.86078125 12.03109375 1.62390625 11.83984375 2.41015625 C11.17415202 5.18733 11.17415202 5.18733 12.40234375 8.09765625 C10.42234375 8.09765625 8.44234375 8.09765625 6.40234375 8.09765625 C6.40234375 6.11765625 6.40234375 4.13765625 6.40234375 2.09765625 C5.74234375 2.09765625 5.08234375 2.09765625 4.40234375 2.09765625 C4.40234375 4.07765625 4.40234375 6.05765625 4.40234375 8.09765625 C3.74234375 8.09765625 3.08234375 8.09765625 2.40234375 8.09765625 C2.40234375 6.11765625 2.40234375 4.13765625 2.40234375 2.09765625 C1.74234375 2.09765625 1.08234375 2.09765625 0.40234375 2.09765625 C0.73234375 4.07765625 1.06234375 6.05765625 1.40234375 8.09765625 C-1.07265625 7.10765625 -1.07265625 7.10765625 -3.59765625 6.09765625 C-3.59765625 6.75765625 -3.59765625 7.41765625 -3.59765625 8.09765625 C-4.25765625 8.09765625 -4.91765625 8.09765625 -5.59765625 8.09765625 C-4.58287812 0.12439951 -4.58287812 0.12439951 0 0 Z M-2.59765625 2.09765625 C-1.59765625 4.09765625 -1.59765625 4.09765625 -1.59765625 4.09765625 Z " fill="#1D1D1D" transform="translate(90.59765625,55.90234375)"/>
<path d="M0 0 C5.28 0 10.56 0 16 0 C16 0.66 16 1.32 16 2 C15.01 2 14.02 2 13 2 C13 3.32 13 4.64 13 6 C13.99 6 14.98 6 16 6 C16 6.66 16 7.32 16 8 C11.05 8 6.1 8 1 8 C0.67 5.36 0.34 2.72 0 0 Z M8 2 C8.99 2.495 8.99 2.495 10 3 C10 3.66 10 4.32 10 5 C9.01 5.495 9.01 5.495 8 6 C8.99 6 9.98 6 11 6 C11 4.68 11 3.36 11 2 C10.01 2 9.02 2 8 2 Z " fill="#1C1C1C" transform="translate(135,56)"/>
<path d="M0 0 C11.22 0 22.44 0 34 0 C34 0.66 34 1.32 34 2 C17.665 2.495 17.665 2.495 1 3 C0.67 2.01 0.34 1.02 0 0 Z " fill="#232323" transform="translate(191,60)"/>
<path d="M0 0 C10.89 0 21.78 0 33 0 C33 0.99 33 1.98 33 3 C21.78 2.67 10.56 2.34 -1 2 C-0.67 1.34 -0.34 0.68 0 0 Z " fill="#232323" transform="translate(26,60)"/>
<path d="M0 0 C0 2.64 0 5.28 0 8 C-1.98 8 -3.96 8 -6 8 C-6.33 6.68 -6.66 5.36 -7 4 C-7.33 5.32 -7.66 6.64 -8 8 C-8.99 8 -9.98 8 -11 8 C-11.66 5.36 -12.32 2.72 -13 0 C-11.68 0.33 -10.36 0.66 -9 1 C-8.360625 0.67 -7.72125 0.34 -7.0625 0 C-4.35978665 -1.31040647 -2.82997412 -0.78610392 0 0 Z M-4 2 C-4 3.32 -4 4.64 -4 6 C-3.34 6 -2.68 6 -2 6 C-2 4.68 -2 3.36 -2 2 C-2.66 2 -3.32 2 -4 2 Z " fill="#1E1E1E" transform="translate(118,56)"/>
<path d="M0 0 C2.31 0 4.62 0 7 0 C7 0.99 7 1.98 7 3 C7.66 3 8.32 3 9 3 C9 2.01 9 1.02 9 0 C9.66 0 10.32 0 11 0 C10.67 2.64 10.34 5.28 10 8 C8.68 8 7.36 8 6 8 C5.67 6.02 5.34 4.04 5 2 C4.67 3.65 4.34 5.3 4 7 C2.68 7 1.36 7 0 7 C0 4.69 0 2.38 0 0 Z " fill="#1E1E1E" transform="translate(74,56)"/>
<path d="M0 0 C0 2.64 0 5.28 0 8 C-0.66 8 -1.32 8 -2 8 C-2.33 7.34 -2.66 6.68 -3 6 C-3.33 6.66 -3.66 7.32 -4 8 C-4.66 8 -5.32 8 -6 8 C-6 5.36 -6 2.72 -6 0 C-3 -1 -3 -1 0 0 Z " fill="#1E1E1E" transform="translate(132,56)"/>
<path d="M0 0 C1.98 0 3.96 0 6 0 C6 2.31 6 4.62 6 7 C7.32 7.33 8.64 7.66 10 8 C7.03 8 4.06 8 1 8 C0.67 5.36 0.34 2.72 0 0 Z " fill="#1A1A1A" transform="translate(135,56)"/>
<path d="M0 0 C0.66 0 1.32 0 2 0 C2 0.99 2 1.98 2 3 C2.66 3 3.32 3 4 3 C4 2.01 4 1.02 4 0 C4.66 0 5.32 0 6 0 C6 2.64 6 5.28 6 8 C5.34 8 4.68 8 4 8 C4 7.01 4 6.02 4 5 C3.34 5 2.68 5 2 5 C2 5.99 2 6.98 2 8 C1.34 8 0.68 8 0 8 C0 5.36 0 2.72 0 0 Z " fill="#1F1F1F" transform="translate(152,56)"/>
<path d="M0 0 C0.66 0 1.32 0 2 0 C2 1.98 2 3.96 2 6 C2.66 6 3.32 6 4 6 C4 4.02 4 2.04 4 0 C4.66 0 5.32 0 6 0 C6 2.64 6 5.28 6 8 C4.02 8 2.04 8 0 8 C0 5.36 0 2.72 0 0 Z " fill="#1F1F1F" transform="translate(119,56)"/>
<path d="M0 0 C0.66 0 1.32 0 2 0 C2 0.66 2 1.32 2 2 C2.66 2 3.32 2 4 2 C4 1.34 4 0.68 4 0 C4.66 0 5.32 0 6 0 C6 2.31 6 4.62 6 7 C5.38125 6.814375 4.7625 6.62875 4.125 6.4375 C1.95839822 5.76313824 1.95839822 5.76313824 0 7 C0 4.69 0 2.38 0 0 Z " fill="#242424" transform="translate(175,56)"/>
<path d="M0 0 C1.65 0 3.3 0 5 0 C4.67 2.31 4.34 4.62 4 7 C2.68 7 1.36 7 0 7 C0 4.69 0 2.38 0 0 Z " fill="#222222" transform="translate(98,56)"/>
<path d="M0 0 C1.65 0 3.3 0 5 0 C4.01 0.33 3.02 0.66 2 1 C2 1.66 2 2.32 2 3 C2.66 3 3.32 3 4 3 C4 4.32 4 5.64 4 7 C2.68 7 1.36 7 0 7 C0 4.69 0 2.38 0 0 Z " fill="#252525" transform="translate(74,56)"/>
<path d="M0 0 C1.32 0.33 2.64 0.66 4 1 C3.34 1 2.68 1 2 1 C2 1.66 2 2.32 2 3 C2.66 3 3.32 3 4 3 C4 4.32 4 5.64 4 7 C2.68 7 1.36 7 0 7 C0 4.69 0 2.38 0 0 Z " fill="#262626" transform="translate(141,56)"/>
<path d="M0 0 C1.32 0.33 2.64 0.66 4 1 C3.34 1 2.68 1 2 1 C2 1.66 2 2.32 2 3 C2.66 3.33 3.32 3.66 4 4 C3.34 4 2.68 4 2 4 C2 4.66 2 5.32 2 6 C2.66 6.33 3.32 6.66 4 7 C2.68 7 1.36 7 0 7 C0 4.69 0 2.38 0 0 Z " fill="#272727" transform="translate(63,56)"/>
</svg>
